<?xml version="1.0" encoding="utf-8"?>
<!-- Generator: Adobe Illustrator 17.1.0, SVG Export Plug-In . SVG Version: 6.00 Build 0)  -->
<!DOCTYPE svg PUBLIC "-//W3C//DTD SVG 1.1//EN" "http://www.w3.org/Graphics/SVG/1.1/DTD/svg11.dtd">
<svg version="1.1" xmlns="http://www.w3.org/2000/svg" xmlns:xlink="http://www.w3.org/1999/xlink" x="0px" y="0px"
	 viewBox="0 0 30 30" enable-background="new 0 0 30 30" xml:space="preserve">
<g id="Layer_1" display="none">
	<g display="inline">
		<circle fill="#010101" cx="15" cy="9.1" r="6.2"/>
		<path fill="#010101" d="M24.5,21.4L24.5,21.4c-2.2-2.5-5.4-4-8.9-4.2c0,0-0.1,0-0.1,0c-0.1,0-0.2,0-0.4,0c0,0,0,0,0,0c0,0,0,0,0,0
			c-0.1,0-0.2,0-0.4,0c0,0-0.1,0-0.1,0c-3.6,0.1-6.7,1.7-9,4.1l0,0c-1.4,1.6-2.5,3.5-3,5.7h8.7h7.6h8.7C27,24.9,25.9,23,24.5,21.4z"
			/>
	</g>
</g>
<g id="Layer_2">
	<g>
		<path fill="#010101" d="M12.1,10c-1.1,0-1.9-0.9-1.9-1.9s0.9-1.9,1.9-1.9h13.5c1.1,0,1.9,0.9,1.9,1.9S26.6,10,25.6,10H12.1z"/>
		<circle fill="#010101" cx="4.5" cy="8" r="2"/>
		<path fill="#010101" d="M12.1,17c-1.1,0-1.9-0.9-1.9-1.9s0.9-1.9,1.9-1.9h13.5c1.1,0,1.9,0.9,1.9,1.9S26.6,17,25.6,17H12.1z"/>
		<circle fill="#010101" cx="4.5" cy="15" r="2"/>
		<path fill="#010101" d="M12.1,24c-1.1,0-1.9-0.9-1.9-1.9c0-1.1,0.9-1.9,1.9-1.9h13.5c1.1,0,1.9,0.9,1.9,1.9c0,1.1-0.9,1.9-1.9,1.9
			H12.1z"/>
		<circle fill="#010101" cx="4.5" cy="22" r="2"/>
	</g>
</g>
<g id="Layer_3" display="none">
	<path display="inline" fill="#010101" d="M15,2.5C8.4,2.5,3,7.6,2.5,14h11.8l-1.8-1.8c-0.4-0.4-0.4-1,0-1.4c0.4-0.4,1-0.4,1.4,0
		l3.4,3.4c0.1,0.1,0.1,0.2,0.2,0.4c0.1,0.1,0.1,0.2,0.1,0.4c0,0.2-0.1,0.3-0.1,0.5c-0.1,0.1-0.1,0.3-0.2,0.4l-3.4,3.4
		c-0.4,0.4-1,0.4-1.4,0c-0.4-0.4-0.4-1,0-1.4l1.8-1.8H2.5C3,22.4,8.3,27.5,15,27.5c6.9,0,12.5-5.6,12.5-12.5S21.8,2.5,15,2.5z
		 M22.8,18.9c0,0.5-0.5,1-1,1s-1-0.5-1-1v-7.8c0-0.5,0.5-1,1-1s1,0.5,1,1V18.9z"/>
</g>
<g id="Layer_4" display="none">
	<path display="inline" fill="#010101" d="M25.2,18.1c1.3,0,2.3-1.4,2.3-3.1s-1.1-3.1-2.3-3.1s-2.4-0.1-2.4-0.1c0-0.1,0.7-1,1.6-1.9
		s0.7-2.6-0.5-3.8S21,4.7,20.1,5.6s-1.7,1.6-1.8,1.6c-0.1,0-0.2-1.1-0.2-2.4S16.7,2.5,15,2.5s-3.1,1.1-3.1,2.3s-0.1,2.4-0.1,2.4
		c-0.1,0-1-0.7-1.9-1.6C9,4.7,7.3,4.9,6.1,6.1S4.7,9,5.6,9.9s1.6,1.7,1.6,1.8s-1.1,0.2-2.4,0.2S2.5,13.3,2.5,15s1.1,3.1,2.3,3.1
		s2.4,0.1,2.4,0.1c0,0.1-0.7,1-1.6,1.9c-0.9,0.9-0.7,2.6,0.5,3.8c1.2,1.2,2.9,1.4,3.8,0.5c0.9-0.9,1.7-1.6,1.8-1.6
		c0.1,0,0.2,1.1,0.2,2.4c0,1.3,1.4,2.3,3.1,2.3s3.1-1.1,3.1-2.3c0-1.3,0.1-2.4,0.1-2.4s1,0.7,1.9,1.6c0.9,0.9,2.6,0.7,3.8-0.5
		c1.2-1.2,1.4-2.9,0.5-3.8c-0.9-0.9-1.6-1.7-1.6-1.8C22.8,18.2,23.9,18.1,25.2,18.1z M14.9,19.2c-2.3,0-4.2-1.9-4.2-4.2
		s1.9-4.2,4.2-4.2s4.2,1.9,4.2,4.2S17.2,19.2,14.9,19.2z"/>
</g>
</svg>
