<svg xmlns="http://www.w3.org/2000/svg" xmlns:xlink="http://www.w3.org/1999/xlink" version="1.1" x="0px" y="0px" viewBox="0 0 90 112.5" enable-background="new 0 0 90 90" xml:space="preserve"><path d="M45,31.3c-7.2,0-13.1,5.6-13.7,12.7h12.9l-2-2c-0.4-0.4-0.4-1.1,0-1.5c0.4-0.4,1.1-0.4,1.5,0l3.7,3.7  c0.1,0.1,0.1,0.2,0.2,0.4c0.1,0.1,0.1,0.2,0.1,0.4s-0.1,0.3-0.1,0.5c-0.1,0.1-0.1,0.3-0.2,0.4l-3.7,3.7c-0.4,0.4-1.1,0.4-1.5,0  c-0.4-0.4-0.4-1.1,0-1.5l2-2H31.3c0.5,7.1,6.4,12.7,13.7,12.7c7.6,0,13.7-6.1,13.7-13.7S52.5,31.3,45,31.3z M53.5,49.3  c0,0.6-0.5,1.1-1.1,1.1c-0.6,0-1.1-0.5-1.1-1.1v-8.5c0-0.6,0.5-1.1,1.1-1.1c0.6,0,1.1,0.5,1.1,1.1V49.3z"/><text x="0" y="105" fill="#000000" font-size="5px" font-weight="bold" font-family="'Helvetica Neue', Helvetica, Arial-Unicode, Arial, Sans-serif">Created by Kaique Amorim</text><text x="0" y="110" fill="#000000" font-size="5px" font-weight="bold" font-family="'Helvetica Neue', Helvetica, Arial-Unicode, Arial, Sans-serif">from the Noun Project</text></svg>