<svg xmlns="http://www.w3.org/2000/svg" xmlns:xlink="http://www.w3.org/1999/xlink" version="1.1" x="0px" y="0px" viewBox="0 0 90 112.5" enable-background="new 0 0 90 90" xml:space="preserve"><path d="M58.8,48.4v-6.7h-5.1c-0.1-0.1-0.1-0.3-0.1-0.4l3.6-3.6l-4.7-4.7l-3.6,3.6c-0.1-0.1-0.3-0.1-0.4-0.1v-5.1h-6.7v5.1  c-0.1,0.1-0.3,0.1-0.4,0.1l-3.6-3.6l-4.7,4.7l3.6,3.6c-0.1,0.1-0.1,0.3-0.1,0.4h-5.1v6.7h5.1c0.1,0.1,0.1,0.3,0.1,0.4l-3.6,3.6  l4.7,4.7l3.6-3.6c0.1,0.1,0.3,0.1,0.4,0.1v5.1h6.7v-5.1c0.1-0.1,0.3-0.1,0.4-0.1l3.6,3.6l4.7-4.7l-3.6-3.6c0.1-0.1,0.1-0.3,0.1-0.4  H58.8z M45,49.6c-2.5,0-4.6-2.1-4.6-4.6s2.1-4.6,4.6-4.6c2.5,0,4.6,2.1,4.6,4.6S47.6,49.6,45,49.6z"/><text x="0" y="105" fill="#000000" font-size="5px" font-weight="bold" font-family="'Helvetica Neue', Helvetica, Arial-Unicode, Arial, Sans-serif">Created by Kaique Amorim</text><text x="0" y="110" fill="#000000" font-size="5px" font-weight="bold" font-family="'Helvetica Neue', Helvetica, Arial-Unicode, Arial, Sans-serif">from the Noun Project</text></svg>