<svg xmlns="http://www.w3.org/2000/svg" xmlns:xlink="http://www.w3.org/1999/xlink" version="1.1" x="0px" y="0px" viewBox="0 0 90 112.5" enable-background="new 0 0 90 90" xml:space="preserve"><circle cx="42.5" cy="36.4" r="7.1"/><path d="M60.7,54.7H54l1.9-1.9c0.4-0.4,0.4-1.1,0-1.5c-0.4-0.4-1.1-0.4-1.5,0l-3.6,3.6c-0.1,0.1-0.2,0.1-0.2,0.2c0,0,0,0,0,0  c-0.4,0.4-0.4,1.1,0,1.5l3.7,3.7c0.4,0.4,1.1,0.4,1.5,0c0.4-0.4,0.4-1.1,0-1.5l-2-2h6.9c0.6,0,1.1-0.5,1.1-1.1  C61.8,55.2,61.3,54.7,60.7,54.7z"/><path d="M53.3,50.4c-2.7-2.9-6.5-4.7-10.8-4.7c-6.9,0-12.7,4.7-14.3,11.2h18.6L53.3,50.4z"/><text x="0" y="105" fill="#000000" font-size="5px" font-weight="bold" font-family="'Helvetica Neue', Helvetica, Arial-Unicode, Arial, Sans-serif">Created by Kaique Amorim</text><text x="0" y="110" fill="#000000" font-size="5px" font-weight="bold" font-family="'Helvetica Neue', Helvetica, Arial-Unicode, Arial, Sans-serif">from the Noun Project</text></svg>