<svg xmlns="http://www.w3.org/2000/svg" xmlns:xlink="http://www.w3.org/1999/xlink" version="1.1" x="0px" y="0px" viewBox="0 0 90 112.5" enable-background="new 0 0 90 90" xml:space="preserve"><path d="M41.2,38.6c-1.4,0-2.5-1.1-2.5-2.5s1.1-2.5,2.5-2.5h17.3c1.4,0,2.5,1.1,2.5,2.5s-1.1,2.5-2.5,2.5H41.2z"/><circle cx="31.5" cy="36" r="2.6"/><path d="M41.2,47.6c-1.4,0-2.5-1.1-2.5-2.5s1.1-2.5,2.5-2.5h17.3c1.4,0,2.5,1.1,2.5,2.5s-1.1,2.5-2.5,2.5H41.2z"/><circle cx="31.5" cy="45" r="2.6"/><path d="M41.2,56.6c-1.4,0-2.5-1.1-2.5-2.5s1.1-2.5,2.5-2.5h17.3c1.4,0,2.5,1.1,2.5,2.5s-1.1,2.5-2.5,2.5H41.2z"/><circle cx="31.5" cy="54" r="2.6"/><text x="0" y="105" fill="#000000" font-size="5px" font-weight="bold" font-family="'Helvetica Neue', Helvetica, Arial-Unicode, Arial, Sans-serif">Created by Kaique Amorim</text><text x="0" y="110" fill="#000000" font-size="5px" font-weight="bold" font-family="'Helvetica Neue', Helvetica, Arial-Unicode, Arial, Sans-serif">from the Noun Project</text></svg>