<svg xmlns="http://www.w3.org/2000/svg" xmlns:xlink="http://www.w3.org/1999/xlink" version="1.1" x="0px" y="0px" viewBox="0 0 90 112.5" enable-background="new 0 0 90 90" xml:space="preserve"><path d="M57,52.2L49.7,45c1.5-3.4,0.8-7.5-1.9-10.3c-3.6-3.6-9.5-3.6-13.1,0s-3.6,9.5,0,13.1c2.8,2.8,6.9,3.4,10.3,1.9l7.3,7.3  c1.3,1.3,3.5,1.3,4.8,0C58.4,55.6,58.3,53.6,57,52.2z M45,45c-2.1,2.1-5.4,2.1-7.4,0s-2.1-5.4,0-7.4s5.4-2.1,7.4,0S47,43,45,45z"/><text x="0" y="105" fill="#000000" font-size="5px" font-weight="bold" font-family="'Helvetica Neue', Helvetica, Arial-Unicode, Arial, Sans-serif">Created by Kaique Amorim</text><text x="0" y="110" fill="#000000" font-size="5px" font-weight="bold" font-family="'Helvetica Neue', Helvetica, Arial-Unicode, Arial, Sans-serif">from the Noun Project</text></svg>